# xmcd CD database file
#
# Track frame offsets:
#	187
#	21707
#	39375
#	55742
#	73010
#	91172
#	107007
#	122272
#	140052
#	162077
#	180437
#	197550
#	214215
#	228675
#	248647
#	265555
#
# Disc length: 3805 seconds
#
# Revision: 0
# Processed by: cddbd v1.5PL3 Copyright (c) Steve Scherf et al.
# Submitted via: CDex 1.51
#
DISCID=d90edb10
DTITLE=Various Artist - NEW MUSIC SELECTION 11
DYEAR=1988
DGENRE=Tribal
TTITLE0=大橋純子 - シルエット・ロマンス
TTITLE1=大橋純子 - たそがれマイ・ラブ
TTITLE2=大橋純子 - 燃えつきて
TTITLE3=大橋純子 - シンプル・ラブ
TTITLE4=もんた＆ブラザーズ - ダンシング・オールナイト
TTITLE5=もんた＆ブラザーズ - DESIRE（デザイアー）
TTITLE6=もんた＆ブラザーズ - ギャランドゥ
TTITLE7=もんたよしのり＆大橋純子 - 夏女ソニア
TTITLE8=つのだひろ - メリー・ジェーン
TTITLE9=石川セリ - ダンスはうまく踊れない
TTITLE10=石川セリ - MOONLIGHT SURFER
TTITLE11=石川セリ - ときどき私は
TTITLE12=石川セリ - 八月の濡れた砂
TTITLE13=桃井かおり - バイバイ子守唄
TTITLE14=桃井かおり - 蜃気楼のように
TTITLE15=内藤やす子 - 六本木ララバイ
EXTD=YEAR: 1988
EXTT0=
EXTT1=
EXTT2=
EXTT3=
EXTT4=
EXTT5=
EXTT6=
EXTT7=
EXTT8=
EXTT9=
EXTT10=
EXTT11=
EXTT12=
EXTT13=
EXTT14=
EXTT15=
PLAYORDER=
